{"title":"Absentia 2011 HDRiP AC3-5 1 XviD-SiC","uid":7094624,"size":1475439795,"categoryP":"video","categoryS":"movies","magnet":"?xt=urn:btih:42ae0b7d74076783377549e0fc980c68aeec90b3&amp;dn=Absentia+2011+HDRiP+AC3-5+1+XviD-SiC&amp;tr=udp%3A%2F%2Ftracker.openbittorrent.com%3A80&amp;tr=udp%3A%2F%2Fopen.demonii.com%3A1337&amp;tr=udp%3A%2F%2Ftracker.coppersurfer.tk%3A6969&amp;tr=udp%3A%2F%2Fexodus.desync.com%3A6969","seeders":1,"leechers":0,"uploader":"HeroMaster","files":-1,"time":1331532316,"description":"Absentia.2011.HDRiP.AC3-5.1.XviD-SiC\n\nIMDB Link: &lt;a href=&quot;\nhttp://www.imdb.com/title/tt1610996/&quot; rel=&quot;nofollow&quot; target=&quot;_NEW&quot;&gt;\nhttp://www.imdb.com/title/tt1610996/&lt;/a&gt;\n\nDescription:\nA woman and her sister begin to link a mysterious tunnel to a series of disappearances, including that of her own husband. \n\nMediaInfo:\nGeneral\nFormat                                   : AVI\nFormat/Info                              : Audio Video Interleave\nFile size                                : 1.36 GiB\nDuration                                 : 1h 31mn\nOverall bit rate                         : 2 130 Kbps\n\nVideo\nID                                       : 0\nFormat                                   : MPEG-4 Visual\nFormat profile                           : Advanced Simple@L5\nFormat settings, BVOP                    : 2\nFormat settings, QPel                    : No\nFormat settings, GMC                     : No warppoints\nFormat settings, Matrix                  : Default (H.263)\nMuxing mode                              : Packed bitstream\nCodec ID                                 : XVID\nCodec ID/Hint                            : XviD\nDuration                                 : 1h 31mn\nBit rate                                 : 1 738 Kbps\nWidth                                    : 720 pixels\nHeight                                   : 400 pixels\nDisplay aspect ratio                     : 16:9\nFrame rate                               : 23.976 fps\nColor space                              : YUV\nChroma subsampling                       : 4:2:0\nBit depth                                : 8 bits\nScan type                                : Progressive\nCompression mode                         : Lossy\nBits/(Pixel*Frame)                       : 0.252\nStream size                              : 1.11 GiB (82%)\nWriting library                          : XviD 1.1.2 (UTC 2006-11-01)\n\nAudio\nID                                       : 1\nFormat                                   : AC-3\nFormat/Info                              : Audio Coding 3\nMode extension                           : CM (complete main)\nCodec ID                                 : 2000\nDuration                                 : 1h 31mn\nBit rate mode                            : Constant\nBit rate                                 : 384 Kbps\nChannel(s)                               : 6 channels\nChannel positions                        : Front: L C R, Side: L R, LFE\nSampling rate                            : 48.0 KHz\nBit depth                                : 16 bits\nCompression mode                         : Lossy\nStream size                              : 250 MiB (18%)\nAlignment                                : Aligned on interleaves\nInterleave, duration                     : 64 ms (1.53 video frames)\nInterleave, preload duration             : 192 ms\nTitle                                    : absentia-5.1\n\n\nPoster:\n\n &lt;a href=&quot;\nhttp://i.imgur.com/iVLrm.jpg&quot; rel=&quot;nofollow&quot; target=&quot;_NEW&quot;&gt;\nhttp://i.imgur.com/iVLrm.jpg&lt;/a&gt;\n\n\nScreenshots:\n\n &lt;a href=&quot;\nhttp://i.imgur.com/4gNJb.jpg&quot; rel=&quot;nofollow&quot; target=&quot;_NEW&quot;&gt;\nhttp://i.imgur.com/4gNJb.jpg&lt;/a&gt;\n\n\nENJOY!","torrent":{"xt":"urn:btih:42ae0b7d74076783377549e0fc980c68aeec90b3","amp;dn":"Absentia+2011+HDRiP+AC3-5+1+XviD-SiC","amp;tr":["udp%3A%2F%2Ftracker.openbittorrent.com%3A80","udp%3A%2F%2Fopen.demonii.com%3A1337","udp%3A%2F%2Ftracker.coppersurfer.tk%3A6969","udp%3A%2F%2Fexodus.desync.com%3A6969"],"infoHash":"42ae0b7d74076783377549e0fc980c68aeec90b3","infoHashBuffer":{"type":"Buffer","data":[66,174,11,125,116,7,103,131,55,117,73,224,252,152,12,104,174,236,144,179]},"announce":[],"urlList":[]}}